<?xml version="1.0" encoding="UTF-8"?><svg id="Layer_1" xmlns="http://www.w3.org/2000/svg" viewBox="0 0 1963.74 294.45"><defs><style>.cls-1{fill:#191919;}</style></defs><path class="cls-1" d="m44.84,294.45h0c179.33-25.54,242.53-64.1,280.39-94.15,3.28-2.6,7.91,1.14,5.82,4.7l-37.64,89.45h38.32c23.68,0,42.87-19.2,42.87-42.87V42.87c0-23.68-19.2-42.87-42.87-42.87H42.87C19.04,0-.22,19.44,0,43.28l1.97,208.7c.22,23.52,19.35,42.47,42.87,42.47Zm211.85-209.18c9.08,18.25,31.47,51.44,33.38,96.3.42,9.86-5.05,19.04-13.97,23.81-18.37,9.82-59.27,30.13-95.44,36.06,0,0,7.33-69.63-30.76-125.73l87.96-37.2c7.09-3,15.45-.04,18.83,6.75ZM179.43,18.58l15.86,34.6c3.7,8.08.15,17.51-8.09,21.19-36.19,16.17-67.56-9.9-81.01,45.35-21.39-71.57,47.4-49.08,73.24-101.14Zm-57.19,130.76c7.99-3.21,17.21.38,20.82,8.03,6.74,14.29,15.22,39.6,13.09,73.72-.69,11-8.13,20.47-19.04,23.81-14.66,4.49-37.93,10.71-66.28,15.18,0,0,9.05-43.92-16.06-93.6l67.47-27.15Z"/><path class="cls-1" d="m550.07,63.27h47.76l55.79,169.9h-37.43l-14-45.46h-58.09l-14,45.46h-36.97l56.94-169.9Zm44.77,100.11l-11.94-38.8c-3.21-11.02-5.51-18.37-8.72-32.14h-1.61c-3.44,13.78-5.74,21.12-8.95,32.14l-11.94,38.8h43.16Z"/><path class="cls-1" d="m663.03,56.38h34.67v35.82c0,13.32-.92,23.19-1.83,30.31h.69c7.12-9.87,19.98-19.98,38.8-19.98,29.39,0,48.68,16.99,48.68,64.29v5.28c0,42.02-21.13,63.83-52.35,63.83-17.45,0-30.31-8.04-37.65-16.76l-4.36,14.01h-26.63V56.38Zm57.4,152.91c17.22,0,28.7-10.56,28.7-36.74v-6.66c0-26.63-8.95-36.97-25.94-36.97-11.02,0-20.43,5.74-25.49,13.09v59.24c4.82,4.36,12.4,8.03,22.73,8.03Z"/><path class="cls-1" d="m798.93,196.66c0-25.71,15.61-38.34,47.3-40.41l26.86-1.61v-3.22c0-16.07-5.97-22.73-24.57-22.73-12.17,0-29.62,2.53-39.95,4.82l-1.61-26.4c11.02-2.3,29.16-4.36,46.38-4.36,42.02,0,54.64,16.99,54.64,47.75v37.43c0,15.15,3.67,24.79,13.32,31.91l-19.98,16.53c-14.23-5.28-20.89-14.01-22.96-25.94h-.92c-5.28,16.07-19.06,25.49-37.88,25.49-24.57,0-40.64-14.23-40.64-39.26Zm48.45,14.47c14.23,0,25.71-10.33,25.71-24.11v-12.4l-20.43,1.61c-15.15,1.15-20.43,7.12-20.43,17.68,0,11.25,5.51,17.22,15.15,17.22Z"/><path class="cls-1" d="m934.85,105.28h27.78l4.59,17.45h.92c7.35-9.87,19.98-20.21,41.33-20.21,27.09,0,42.02,16.07,42.02,48.68v81.97h-34.9v-75.54c0-17.68-6.43-26.63-20.66-26.63-11.02,0-20.43,5.28-26.18,12.63v89.54h-34.9v-127.89Z"/><path class="cls-1" d="m1158.94,215.49h-.69c-7.12,9.87-20.2,20.43-39.26,20.43-29.39,0-48.67-16.99-48.67-64.29v-5.28c0-42.02,21.12-63.83,52.35-63.83,15.61,0,27.55,6.43,35.13,14.01h.92c-.92-7.35-2.07-17.45-2.07-29.39v-30.77h34.67v176.79h-27.55l-4.82-17.68Zm-27.78-5.97c11.02,0,20.43-5.74,25.49-13.09v-59.24c-4.82-4.36-12.4-8.03-22.73-8.03-17.22,0-28.7,10.56-28.7,36.74v6.66c0,26.63,8.95,36.97,25.94,36.97Z"/><path class="cls-1" d="m1211.06,171.63v-5.05c0-40.41,22.96-64.06,63.14-64.06s63.37,23.65,63.37,64.06v5.05c0,40.64-22.96,64.29-63.37,64.29s-63.14-23.65-63.14-64.29Zm63.14,37.43c17.91,0,28.47-11.71,28.47-36.51v-6.89c0-24.57-10.56-36.5-28.47-36.5s-28.47,11.94-28.47,36.5v6.89c0,24.8,10.79,36.51,28.47,36.51Z"/><path class="cls-1" d="m1357.31,105.28h27.78l4.59,17.45h.92c7.35-9.87,19.98-20.21,41.33-20.21,27.09,0,42.02,16.07,42.02,48.68v81.97h-34.9v-75.54c0-17.68-6.43-26.63-20.66-26.63-11.02,0-20.43,5.28-26.18,12.63v89.54h-34.9v-127.89Z"/><path class="cls-1" d="m1472.92,52.75h118.32v30.31h-43.65v150.11h-36.05V83.06h-38.62v-30.31Z"/><path class="cls-1" d="m1582.63,171.87v-5.28c0-40.87,22.73-64.06,61.07-64.06s57.63,22.96,57.63,61.99v16.3h-84.03c1.61,19.52,12.63,29.39,30.99,29.39,15.15,0,27.32-3.67,37.88-8.49l7.12,23.65c-13.78,6.89-28.7,10.56-47.07,10.56-41.1,0-63.6-23.42-63.6-64.06Zm85.87-12.17c-.23-19.29-8.95-31.45-24.8-31.45-14.69,0-25.03,10.33-26.4,31.45h51.2Z"/><path class="cls-1" d="m1716.23,171.63v-5.05c0-40.87,23.65-64.06,61.3-64.06,30.31,0,48.45,15.61,52.81,43.62l-28.47,7.81c-3.22-14.46-10.79-23.88-23.88-23.88-15.84,0-26.63,12.17-26.63,35.82v6.2c0,24.34,11.48,36.51,31.69,36.51,14.93,0,28.01-5.28,38.11-11.25l8.49,25.25c-14,8.96-32.83,13.32-49.82,13.32-40.18,0-63.6-23.65-63.6-64.29Z"/><path class="cls-1" d="m1847.11,56.38h34.9v36.05c0,12.86-1.15,22.73-2.07,29.62h.92c7.35-9.64,19.98-19.52,40.87-19.52,27.09,0,42.02,16.07,42.02,48.68v81.97h-34.9v-75.54c0-17.68-6.43-26.63-20.66-26.63-11.02,0-20.43,5.28-26.18,12.63v89.54h-34.9V56.38Z"/></svg>