<?xml version="1.0" encoding="UTF-8"?><svg id="Layer_1" xmlns="http://www.w3.org/2000/svg" viewBox="0 0 1307.14 527.28"><defs><style>.cls-1{fill:#1a67d7;}.cls-2{fill:#ffffff;}</style></defs><path class="cls-2" d="m50.61,373.41h42.45l49.59,151.02h-33.27l-12.45-40.41h-51.63l-12.45,40.41H0l50.61-151.02Zm39.8,88.98l-10.61-34.49c-2.86-9.79-4.9-16.32-7.75-28.57h-1.43c-3.06,12.24-5.1,18.77-7.96,28.57l-10.61,34.49h38.37Z"/><path class="cls-2" d="m151.02,367.29h30.81v31.84c0,11.84-.82,20.61-1.63,26.94h.61c6.33-8.77,17.75-17.75,34.49-17.75,26.12,0,43.27,15.1,43.27,57.14v4.69c0,37.35-18.78,56.73-46.53,56.73-15.51,0-26.94-7.14-33.47-14.9l-3.88,12.45h-23.67v-157.14Zm51.02,135.91c15.31,0,25.51-9.39,25.51-32.65v-5.92c0-23.67-7.96-32.86-23.06-32.86-9.79,0-18.16,5.1-22.65,11.63v52.65c4.29,3.88,11.02,7.14,20.2,7.14Z"/><path class="cls-2" d="m271.81,491.98c0-22.86,13.88-34.08,42.04-35.92l23.88-1.43v-2.86c0-14.29-5.31-20.2-21.84-20.2-10.82,0-26.33,2.24-35.51,4.29l-1.43-23.47c9.8-2.04,25.92-3.88,41.22-3.88,37.35,0,48.57,15.1,48.57,42.45v33.27c0,13.47,3.27,22.04,11.84,28.37l-17.75,14.69c-12.65-4.69-18.57-12.45-20.41-23.06h-.82c-4.69,14.28-16.94,22.65-33.67,22.65-21.84,0-36.12-12.65-36.12-34.9Zm43.06,12.86c12.65,0,22.86-9.18,22.86-21.43v-11.02l-18.16,1.43c-13.47,1.02-18.16,6.33-18.16,15.71,0,10,4.9,15.31,13.47,15.31Z"/><path class="cls-2" d="m392.62,410.75h24.69l4.08,15.51h.82c6.53-8.78,17.75-17.96,36.73-17.96,24.08,0,37.35,14.29,37.35,43.27v72.85h-31.02v-67.14c0-15.71-5.71-23.67-18.37-23.67-9.8,0-18.16,4.69-23.27,11.22v79.59h-31.02v-113.67Z"/><path class="cls-2" d="m591.8,508.71h-.61c-6.33,8.77-17.96,18.16-34.9,18.16-26.12,0-43.26-15.1-43.26-57.14v-4.69c0-37.35,18.77-56.73,46.53-56.73,13.88,0,24.49,5.71,31.22,12.45h.82c-.82-6.53-1.84-15.51-1.84-26.12v-27.35h30.82v157.14h-24.49l-4.29-15.71Zm-24.69-5.31c9.79,0,18.16-5.1,22.65-11.63v-52.65c-4.29-3.88-11.02-7.14-20.2-7.14-15.31,0-25.51,9.39-25.51,32.65v5.92c0,23.67,7.96,32.86,23.06,32.86Z"/><path class="cls-2" d="m638.12,469.73v-4.49c0-35.92,20.41-56.94,56.12-56.94s56.32,21.02,56.32,56.94v4.49c0,36.12-20.41,57.14-56.32,57.14s-56.12-21.02-56.12-57.14Zm56.12,33.27c15.92,0,25.3-10.41,25.3-32.45v-6.12c0-21.84-9.39-32.45-25.3-32.45s-25.3,10.61-25.3,32.45v6.12c0,22.04,9.59,32.45,25.3,32.45Z"/><path class="cls-2" d="m768.12,410.75h24.69l4.08,15.51h.82c6.53-8.78,17.75-17.96,36.73-17.96,24.08,0,37.35,14.29,37.35,43.27v72.85h-31.02v-67.14c0-15.71-5.71-23.67-18.37-23.67-9.8,0-18.16,4.69-23.27,11.22v79.59h-31.02v-113.67Z"/><path class="cls-2" d="m870.88,364.07h105.17v26.94h-38.8v133.42h-32.04v-133.42h-34.33v-26.94Z"/><path class="cls-2" d="m968.4,469.94v-4.69c0-36.32,20.2-56.94,54.28-56.94s51.22,20.41,51.22,55.1v14.49h-74.69c1.43,17.35,11.22,26.12,27.55,26.12,13.47,0,24.29-3.26,33.67-7.55l6.33,21.02c-12.24,6.12-25.51,9.39-41.84,9.39-36.53,0-56.53-20.82-56.53-56.94Zm76.32-10.82c-.2-17.14-7.96-27.96-22.04-27.96-13.06,0-22.24,9.18-23.47,27.96h45.51Z"/><path class="cls-2" d="m1087.15,469.73v-4.49c0-36.32,21.02-56.94,54.49-56.94,26.94,0,43.06,13.88,46.94,38.77l-25.3,6.94c-2.86-12.86-9.59-21.22-21.22-21.22-14.08,0-23.67,10.81-23.67,31.84v5.51c0,21.63,10.21,32.45,28.16,32.45,13.27,0,24.9-4.69,33.88-10l7.55,22.45c-12.45,7.96-29.18,11.84-44.28,11.84-35.71,0-56.53-21.02-56.53-57.14Z"/><path class="cls-2" d="m1203.47,367.29h31.02v32.04c0,11.43-1.02,20.2-1.84,26.32h.82c6.53-8.57,17.75-17.35,36.32-17.35,24.08,0,37.35,14.29,37.35,43.27v72.85h-31.02v-67.14c0-15.71-5.71-23.67-18.37-23.67-9.8,0-18.16,4.69-23.27,11.22v79.59h-31.02v-157.14Z"/><path class="cls-1" d="m501.89,294.45h0c179.33-25.54,242.53-64.1,280.39-94.15,3.28-2.6,7.91,1.14,5.82,4.7l-37.64,89.45h38.32c23.68,0,42.87-19.2,42.87-42.87V42.87c0-23.68-19.2-42.87-42.87-42.87h-288.87c-23.84,0-43.1,19.44-42.87,43.28l1.97,208.7c.22,23.52,19.35,42.47,42.87,42.47Zm211.85-209.18c9.08,18.25,31.47,51.44,33.38,96.3.42,9.86-5.05,19.04-13.97,23.81-18.37,9.82-59.27,30.13-95.44,36.06,0,0,7.33-69.63-30.76-125.73l87.96-37.2c7.09-3,15.45-.04,18.83,6.75Zm-77.27-66.69l15.86,34.6c3.7,8.08.15,17.51-8.09,21.19-36.19,16.17-67.56-9.9-81.01,45.35-21.39-71.57,47.4-49.08,73.24-101.14Zm-57.19,130.76c7.99-3.21,17.21.38,20.82,8.03,6.74,14.29,15.22,39.6,13.09,73.72-.69,11-8.13,20.47-19.04,23.81-14.66,4.49-37.93,10.71-66.28,15.18,0,0,9.05-43.92-16.06-93.6l67.47-27.15Z"/></svg>